<svg xmlns="http://www.w3.org/2000/svg" version="1.1" xmlns:xlink="http://www.w3.org/1999/xlink" xmlns:svgjs="http://svgjs.dev/svgjs" width="1000" height="361" viewBox="0 0 1000 361"><g transform="matrix(1,0,0,1,-0.6060516377010572,0.20780067419340753)"><svg viewBox="0 0 396 143" data-background-color="#ffffff" preserveAspectRatio="xMidYMid meet" height="361" width="1000" xmlns="http://www.w3.org/2000/svg" xmlns:xlink="http://www.w3.org/1999/xlink"><g id="tight-bounds" transform="matrix(1,0,0,1,0.23999644852960955,-0.08231439448658762)"><svg viewBox="0 0 395.52 143.16462878897315" height="143.16462878897315" width="395.52"><g><svg viewBox="0 0 675.2889475912664 244.43135999999998" height="143.16462878897315" width="395.52"><g transform="matrix(1,0,0,1,279.7689475912664,77.10941258290114)"><svg viewBox="0 0 395.52 90.21253483419768" height="90.21253483419768" width="395.52"><g id="textblocktransform"><svg viewBox="0 0 395.52 90.21253483419768" height="90.21253483419768" width="395.52" id="textblock"><g><svg viewBox="0 0 395.52 59.874934497816604" height="59.874934497816604" width="395.52"><g transform="matrix(1,0,0,1,0,0)"><svg width="395.52" viewBox="2.549999952316284 -35.70000076293945 240.42999267578125 36.400001525878906" height="59.874934497816604" data-palette-color="#4790fc"><path d="M14 0.7L14 0.7Q11.83 0.7 9.65 0.38 7.48 0.05 5.63-0.46 3.78-0.98 2.55-1.55L2.55-1.55 3.2-6.6Q4.55-5.95 6.46-5.25 8.38-4.55 10.6-4.08 12.83-3.6 15.1-3.6L15.1-3.6Q18.48-3.6 20.46-4.84 22.45-6.08 22.45-8.7L22.45-8.7Q22.45-10.68 21.45-11.94 20.45-13.2 18.44-14.1 16.43-15 13.4-15.9L13.4-15.9Q10.53-16.75 8.1-17.91 5.68-19.07 4.21-21.04 2.75-23 2.75-26.25L2.75-26.25Q2.75-29.03 4.19-31.16 5.63-33.3 8.41-34.5 11.2-35.7 15.25-35.7L15.25-35.7Q18.7-35.7 21.59-34.95 24.48-34.2 26.35-33.3L26.35-33.3 25.85-28.25Q23-29.95 20.41-30.68 17.82-31.4 15.05-31.4L15.05-31.4Q11.98-31.4 9.96-30.25 7.95-29.1 7.95-26.5L7.95-26.5Q7.95-24.75 8.85-23.64 9.75-22.53 11.53-21.74 13.3-20.95 15.95-20.15L15.95-20.15Q19.6-19.05 22.23-17.64 24.85-16.23 26.25-14.16 27.65-12.1 27.65-9.05L27.65-9.05Q27.65-6.8 26.8-5 25.95-3.2 24.25-1.93 22.55-0.65 19.99 0.03 17.43 0.7 14 0.7ZM47.3 0.7L47.3 0.7Q42.37 0.7 39.16-1.19 35.95-3.08 34.37-6.56 32.8-10.05 32.8-14.85L32.8-14.85 32.8-35 37.55-35 37.55-16.15Q37.55-13.75 37.92-11.5 38.3-9.25 39.31-7.48 40.32-5.7 42.26-4.65 44.2-3.6 47.3-3.6L47.3-3.6Q50.42-3.6 52.35-4.65 54.27-5.7 55.29-7.49 56.3-9.28 56.67-11.53 57.05-13.78 57.05-16.15L57.05-16.15 57.05-35 61.8-35 61.8-14.85Q61.8-10.05 60.22-6.56 58.65-3.08 55.44-1.19 52.22 0.7 47.3 0.7ZM72.4 0L67.4 0 72.09-35 76.15-35 85.34-17.65 94.45-35 98.55-35 103.2 0 98.2 0 94.65-28.55 95.9-28.35 85.4-8.3 74.7-28.35 75.95-28.55 72.4 0ZM112.99 0L107.99 0 112.69-35 116.74-35 125.94-17.65 135.04-35 139.14-35 143.79 0 138.79 0 135.24-28.55 136.49-28.35 125.99-8.3 115.29-28.35 116.54-28.55 112.99 0ZM169.09-13.75L169.09-9.45 154.09-9.45 154.09-13.75 169.09-13.75ZM171.64 0L160.89-30.35 162.29-30.35 151.54 0 146.54 0 159.09-35 164.09-35 176.64 0 171.64 0ZM185.74 0L180.99 0 180.99-35 185.74-35 185.74 0ZM216.59 0L190.19 0 210.24-32.5 211.14-30.7 192.44-30.7 192.44-35 216.84-35 196.69-2.5 195.84-4.3 216.59-4.3 216.59 0ZM242.98 0L221.18 0 221.18-35 242.53-35 242.53-30.7 225.93-30.7 225.93-20.45 239.13-20.45 239.13-16.15 225.93-16.15 225.93-4.3 242.98-4.3 242.98 0Z" opacity="1" transform="matrix(1,0,0,1,0,0)" fill="#4790fc" class="wordmark-text-0" data-fill-palette-color="primary" id="text-0"></path></svg></g></svg></g><g transform="matrix(1,0,0,1,0,74.00996953432316)"><svg viewBox="0 0 232.209792 16.20256529987453" height="16.20256529987453" width="232.209792"><g transform="matrix(1,0,0,1,0,0)"><svg width="232.209792" viewBox="2.5 -37.54999923706055 717.2100219726562 50.04999923706055" height="16.20256529987453" data-palette-color="#ed2326"><path d="M5.55-32.25L2.5-32.25 2.5-35 23.75-35 23.7-34.7 24.35-27.8 21.85-27.4 21.25-32.25 8.95-32.25 8.95-18.85 19.85-18.85 19.85-22 22.6-22 22.6-13.4 19.85-13.4 19.85-16.1 8.95-16.1 8.95-2.75 22.6-2.75 23.35-9 25.8-8.75 25.05 0 2.5 0 2.5-2.75 5.55-2.75 5.55-32.25ZM30.15-31.05Q30.15-34.5 32.4-36.02 34.65-37.55 37.15-37.55 39.65-37.55 41.05-37L41.05-37 40.9-34.65Q39.7-34.8 38.82-34.8 37.95-34.8 37.12-34.63 36.3-34.45 35.4-34L35.4-34Q33.4-32.9 33.4-29.9L33.4-29.9 33.4-25 39.45-25 39.45-22.1 33.4-22.1 33.4-2.5 37.65-2.5 37.65 0 27.05 0 27.05-2.5 30.15-2.5 30.15-22.1 27.6-22.1 28-24.5 30.15-24.95 30.15-31.05ZM45.15-31.05Q45.15-34.5 47.4-36.02 49.65-37.55 52.15-37.55 54.65-37.55 56.05-37L56.05-37 55.9-34.65Q54.7-34.8 53.82-34.8 52.95-34.8 52.12-34.63 51.3-34.45 50.4-34L50.4-34Q48.4-32.9 48.4-29.9L48.4-29.9 48.4-25 54.45-25 54.45-22.1 48.4-22.1 48.4-2.5 52.65-2.5 52.65 0 42.05 0 42.05-2.5 45.15-2.5 45.15-22.1 42.59-22.1 43-24.5 45.15-24.95 45.15-31.05ZM69.92 0.2Q64.69 0.2 61.47-2.8 58.24-5.8 58.24-11.98 58.24-18.15 61.67-21.68 65.09-25.2 70.29-25.2 75.49-25.2 78.74-22.2 81.99-19.2 81.99-13.03 81.99-6.85 78.57-3.33 75.14 0.2 69.92 0.2ZM70.22-22.3Q66.49-22.3 63.99-19.6 61.49-16.9 61.49-12.28 61.49-7.65 63.87-5.18 66.24-2.7 69.99-2.7 73.74-2.7 76.24-5.38 78.74-8.05 78.74-12.68 78.74-17.3 76.34-19.8 73.94-22.3 70.22-22.3ZM91.29-16.75L91.29-2.5 95.44-2.5 95.44 0 84.94 0 84.94-2.5 88.04-2.5 88.04-22.5 84.69-22.5 84.69-25 91.29-25 91.29-18.95Q95.24-24.75 99.04-24.85L99.04-24.85Q99.34-24.85 99.64-24.85L99.64-24.85 102.44-24.5 101.14-21.5Q100.19-21.95 98.69-21.95L98.69-21.95Q95.09-21.9 91.29-16.75L91.29-16.75ZM115.99-2.45L115.99-2.45 117.94-2.55 118.09-0.55Q118.04-0.55 117.39-0.4L117.39-0.4Q115.89-0.05 114.04-0.05L114.04-0.05Q112.34-0.15 110.94-0.63 109.54-1.1 108.34-2.63 107.14-4.15 107.14-6.55L107.14-6.55 107.14-22.1 104.59-22.1 104.99-24.5 107.19-24.95 107.59-29.75 110.39-30 110.39-25 116.44-25 116.44-22.1 110.39-22.1 110.39-7.4Q110.39-2.45 115.99-2.45ZM123.94-35L120.59-35 120.59-37.5 127.19-37.5 127.19-2.5 130.94-2.5 130.94 0 120.84 0 120.84-2.5 123.94-2.5 123.94-35ZM135.83-11.2L135.83-11.2Q135.83-6.75 138.38-4.73 140.93-2.7 144.33-2.7L144.33-2.7Q146.53-2.7 148.86-3.13 151.18-3.55 151.93-3.9L151.93-3.9 152.58-1.55Q151.43-0.8 148.81-0.3 146.18 0.2 144.01 0.2 141.83 0.2 140.11-0.25 138.38-0.7 136.58-1.85 134.78-3 133.73-5.45 132.68-7.9 132.68-11.45L132.68-11.45Q132.68-18.05 136.08-21.55L136.08-21.55Q139.63-25.2 144.33-25.2 149.03-25.2 151.51-22.6 153.98-20 153.98-15.3L153.98-15.3Q153.98-14.3 153.83-13.15L153.83-13.15 135.98-13.15Q135.83-12.1 135.83-11.2ZM150.98-15.65L150.98-15.65Q150.98-18.75 149.13-20.43 147.28-22.1 144.83-22.1L144.83-22.1Q141.48-22.1 139.28-20.08 137.08-18.05 136.33-15.1L136.33-15.1 150.98-15.1Q150.98-15.4 150.98-15.65ZM160.13-8.05L160.38-3.25Q162.48-2.6 163.76-2.6 165.03-2.6 165.43-2.65L165.43-2.65Q168.03-2.7 169.78-3.75 171.53-4.8 171.53-6.7 171.53-8.6 170.16-9.65 168.78-10.7 166.83-11.25 164.88-11.8 162.93-12.45 160.98-13.1 159.61-14.5 158.23-15.9 158.23-18.15L158.23-18.15Q158.23-21.35 160.68-23.28 163.13-25.2 166.88-25.2L166.88-25.2Q169.68-25.2 172.53-24.2L172.53-24.2 173.43-23.85 173.43-18.1 170.98-17.75 170.78-22Q168.78-22.3 167.43-22.3L167.43-22.3Q164.68-22.3 163.08-21.23 161.48-20.15 161.48-18.48 161.48-16.8 162.86-15.85 164.23-14.9 166.18-14.35 168.13-13.8 170.08-13.13 172.03-12.45 173.41-10.93 174.78-9.4 174.78-6.95L174.78-6.95Q174.78-3.65 172.31-1.73 169.83 0.2 165.28 0.2 160.73 0.2 157.73-1.95L157.73-1.95 157.73-7.7 160.13-8.05ZM181.18-8.05L181.43-3.25Q183.53-2.6 184.8-2.6 186.08-2.6 186.48-2.65L186.48-2.65Q189.08-2.7 190.83-3.75 192.58-4.8 192.58-6.7 192.58-8.6 191.2-9.65 189.83-10.7 187.88-11.25 185.93-11.8 183.98-12.45 182.03-13.1 180.65-14.5 179.28-15.9 179.28-18.15L179.28-18.15Q179.28-21.35 181.73-23.28 184.18-25.2 187.93-25.2L187.93-25.2Q190.73-25.2 193.58-24.2L193.58-24.2 194.48-23.85 194.48-18.1 192.03-17.75 191.83-22Q189.83-22.3 188.48-22.3L188.48-22.3Q185.73-22.3 184.13-21.23 182.53-20.15 182.53-18.48 182.53-16.8 183.9-15.85 185.28-14.9 187.23-14.35 189.18-13.8 191.13-13.13 193.08-12.45 194.45-10.93 195.83-9.4 195.83-6.95L195.83-6.95Q195.83-3.65 193.35-1.73 190.88 0.2 186.33 0.2 181.78 0.2 178.78-1.95L178.78-1.95 178.78-7.7 181.18-8.05ZM218.37-32.25L215.27-32.25 215.27-35 225.37-35 225.37-32.25 221.77-32.25 221.77-2.75 234.47-2.75 235.22-9 237.67-8.75 237.12-2.75 237.17-2.75 237.12-2.65 236.92 0 236.42-0.05 236.42 0 215.27 0 215.27-2.75 218.37-2.75 218.37-32.25ZM244.02-11.2L244.02-11.2Q244.02-6.75 246.57-4.73 249.12-2.7 252.52-2.7L252.52-2.7Q254.72-2.7 257.05-3.13 259.37-3.55 260.12-3.9L260.12-3.9 260.77-1.55Q259.62-0.8 257-0.3 254.37 0.2 252.2 0.2 250.02 0.2 248.3-0.25 246.57-0.7 244.77-1.85 242.97-3 241.92-5.45 240.87-7.9 240.87-11.45L240.87-11.45Q240.87-18.05 244.27-21.55L244.27-21.55Q247.82-25.2 252.52-25.2 257.22-25.2 259.7-22.6 262.17-20 262.17-15.3L262.17-15.3Q262.17-14.3 262.02-13.15L262.02-13.15 244.17-13.15Q244.02-12.1 244.02-11.2ZM259.17-15.65L259.17-15.65Q259.17-18.75 257.32-20.43 255.47-22.1 253.02-22.1L253.02-22.1Q249.67-22.1 247.47-20.08 245.27-18.05 244.52-15.1L244.52-15.1 259.17-15.1Q259.17-15.4 259.17-15.65ZM273.02 0.2L273.02 0.2Q266.37 0.2 265.97-5.05L265.97-5.05Q265.92-5.4 265.92-5.75L265.92-5.75Q265.92-9.95 270.97-11.35L270.97-11.35Q273.77-12.05 281.77-12.95L281.77-12.95 281.77-16.8Q281.77-22.25 276.07-22.25L276.07-22.25Q271.97-22.2 267.37-20.35L267.37-20.35 266.52-22.5 267.02-22.7Q270.92-24.4 272.97-24.75 275.02-25.1 275.97-25.13 276.92-25.15 277.79-25.1 278.67-25.05 280.07-24.65 281.47-24.25 282.49-23.53 283.52-22.8 284.27-21.35 285.02-19.9 285.02-17.9L285.02-17.9 285.02-2.5 288.87-2.5 288.87 0 282.27 0 281.77-1.9Q277.27 0.2 273.02 0.2ZM273.92-2.1L273.92-2.1Q277.72-2.1 281.77-3.8L281.77-3.8 281.77-10.95Q274.27-10.7 272.07-9.95L272.07-9.95Q270.37-9.5 269.67-8.33 268.97-7.15 268.97-6.45 268.97-5.75 268.97-5.5L268.97-5.5Q269.12-3.7 270.52-2.9 271.92-2.1 273.92-2.1ZM297.42-16.75L297.42-2.5 301.57-2.5 301.57 0 291.07 0 291.07-2.5 294.17-2.5 294.17-22.5 290.82-22.5 290.82-25 297.42-25 297.42-18.95Q301.37-24.75 305.17-24.85L305.17-24.85Q305.47-24.85 305.77-24.85L305.77-24.85 308.57-24.5 307.27-21.5Q306.32-21.95 304.82-21.95L304.82-21.95Q301.22-21.9 297.42-16.75L297.42-16.75ZM313.91-22.5L310.56-22.5 310.56-25 317.16-25 317.16-22.2Q321.26-25 325.01-25.15L325.01-25.15Q328.66-25.15 330.56-23.7L330.56-23.7Q331.41-23.05 332.09-21.68 332.76-20.3 332.76-18.4L332.76-18.4 332.76-2.5 336.61-2.5 336.61 0 326.51 0 326.51-2.5 329.51-2.5 329.51-17.15Q329.51-22 323.81-22L323.81-22Q320.71-21.9 317.16-19.95L317.16-19.95 317.16-2.5 320.91-2.5 320.91 0 310.81 0 310.81-2.5 313.91-2.5 313.91-22.5ZM343.36-22.5L340.01-22.5 340.01-25 346.61-25 346.61-2.5 350.36-2.5 350.36 0 340.26 0 340.26-2.5 343.36-2.5 343.36-22.5ZM344.91-31.7Q343.91-31.7 343.36-32.33 342.81-32.95 342.81-33.98 342.81-35 343.39-35.63 343.96-36.25 344.96-36.25 345.96-36.25 346.59-35.63 347.21-35 347.21-33.93 347.21-32.85 346.56-32.27 345.91-31.7 344.91-31.7ZM355.61-22.5L352.26-22.5 352.26-25 358.86-25 358.86-22.2Q362.96-25 366.71-25.15L366.71-25.15Q370.36-25.15 372.26-23.7L372.26-23.7Q373.11-23.05 373.78-21.68 374.46-20.3 374.46-18.4L374.46-18.4 374.46-2.5 378.31-2.5 378.31 0 368.21 0 368.21-2.5 371.21-2.5 371.21-17.15Q371.21-22 365.51-22L365.51-22Q362.41-21.9 358.86-19.95L358.86-19.95 358.86-2.5 362.61-2.5 362.61 0 352.51 0 352.51-2.5 355.61-2.5 355.61-22.5ZM379.61 5.2L379.61 5.2Q379.61 0.7 384.96-2.7L384.96-2.7Q382.86-4.2 382.86-6.28 382.86-8.35 384.66-9.65L384.66-9.65Q380.96-11.45 380.96-16.95L380.96-16.95Q380.96-20.8 383.86-23 386.76-25.2 391.26-25.2L391.26-25.2Q392.71-25.2 394.21-24.95L394.21-24.95 403.61-25.2 403.51-23.3 398.06-23.3Q400.81-21.25 400.81-17.15 400.81-13.05 398.06-10.8 395.31-8.55 390.96-8.55L390.96-8.55Q388.16-8.55 386.31-9.05L386.31-9.05Q385.36-8.15 385.36-6.75 385.36-5.35 387.08-4.58 388.81-3.8 391.53-3.43 394.26-3.05 395.51-2.78 396.76-2.5 398.41-1.9 400.06-1.3 401.06-0.5L401.06-0.5Q403.41 1.45 403.41 4.7L403.41 4.7Q403.41 6.95 402.36 8.55 401.31 10.15 399.46 11L399.46 11Q396.06 12.5 391.36 12.5L391.36 12.5Q385.11 12.5 382.36 10.35 379.61 8.2 379.61 5.2ZM382.86 4.85L382.86 4.85Q382.86 6.9 384.86 8.25 386.86 9.6 390.96 9.6L390.96 9.6Q400.16 9.6 400.16 4.7L400.16 4.7Q400.16 2.25 397.96 1.2L397.96 1.2Q396.06 0.25 393.76-0.2L393.76-0.2Q388.86-0.9 386.71-1.75L386.71-1.75Q382.86 1.4 382.86 4.85ZM391.11-22.55Q388.01-22.55 386.11-21.13 384.21-19.7 384.21-16.88 384.21-14.05 385.68-12.63 387.16-11.2 390.41-11.2 393.66-11.2 395.53-12.83 397.41-14.45 397.41-17.25L397.41-17.25Q397.41-22.55 391.11-22.55L391.11-22.55ZM407.25-3.25L407.25-3.25Q407.25-3.25 409.95-3.2L409.95-3.2Q409.95-0.45 408.55 5.15L408.55 5.15 406.25 5.05 406.5 3.35Q407.25-1.2 407.25-2.15 407.25-3.1 407.25-3.25ZM431.85-32.25L428.55-32.25 428.55-35 438.65-35 438.65-32.25 435.25-32.25 435.25-2.75 438.65-2.75 438.65 0 428.55 0 428.55-2.75 431.85-2.75 431.85-32.25ZM445-22.5L441.65-22.5 441.65-25 448.25-25 448.25-22.2Q452.35-25 456.1-25.15L456.1-25.15Q459.75-25.15 461.65-23.7L461.65-23.7Q462.5-23.05 463.17-21.68 463.85-20.3 463.85-18.4L463.85-18.4 463.85-2.5 467.7-2.5 467.7 0 457.6 0 457.6-2.5 460.6-2.5 460.6-17.15Q460.6-22 454.9-22L454.9-22Q451.8-21.9 448.25-19.95L448.25-19.95 448.25-2.5 452-2.5 452 0 441.9 0 441.9-2.5 445-2.5 445-22.5ZM474.64-8.05L474.89-3.25Q476.99-2.6 478.27-2.6 479.54-2.6 479.94-2.65L479.94-2.65Q482.54-2.7 484.29-3.75 486.04-4.8 486.04-6.7 486.04-8.6 484.67-9.65 483.29-10.7 481.34-11.25 479.39-11.8 477.44-12.45 475.49-13.1 474.12-14.5 472.74-15.9 472.74-18.15L472.74-18.15Q472.74-21.35 475.19-23.28 477.64-25.2 481.39-25.2L481.39-25.2Q484.19-25.2 487.04-24.2L487.04-24.2 487.94-23.85 487.94-18.1 485.49-17.75 485.29-22Q483.29-22.3 481.94-22.3L481.94-22.3Q479.19-22.3 477.59-21.23 475.99-20.15 475.99-18.48 475.99-16.8 477.37-15.85 478.74-14.9 480.69-14.35 482.64-13.8 484.59-13.13 486.54-12.45 487.92-10.93 489.29-9.4 489.29-6.95L489.29-6.95Q489.29-3.65 486.82-1.73 484.34 0.2 479.79 0.2 475.24 0.2 472.24-1.95L472.24-1.95 472.24-7.7 474.64-8.05ZM503.59-2.45L503.59-2.45 505.54-2.55 505.69-0.55Q505.64-0.55 504.99-0.4L504.99-0.4Q503.49-0.05 501.64-0.05L501.64-0.05Q499.94-0.15 498.54-0.63 497.14-1.1 495.94-2.63 494.74-4.15 494.74-6.55L494.74-6.55 494.74-22.1 492.19-22.1 492.59-24.5 494.79-24.95 495.19-29.75 497.99-30 497.99-25 504.04-25 504.04-22.1 497.99-22.1 497.99-7.4Q497.99-2.45 503.59-2.45ZM515.59 0.2L515.59 0.2Q508.94 0.2 508.54-5.05L508.54-5.05Q508.49-5.4 508.49-5.75L508.49-5.75Q508.49-9.95 513.54-11.35L513.54-11.35Q516.34-12.05 524.34-12.95L524.34-12.95 524.34-16.8Q524.34-22.25 518.64-22.25L518.64-22.25Q514.54-22.2 509.94-20.35L509.94-20.35 509.09-22.5 509.59-22.7Q513.49-24.4 515.54-24.75 517.59-25.1 518.54-25.13 519.49-25.15 520.36-25.1 521.24-25.05 522.64-24.65 524.04-24.25 525.06-23.53 526.09-22.8 526.84-21.35 527.59-19.9 527.59-17.9L527.59-17.9 527.59-2.5 531.44-2.5 531.44 0 524.84 0 524.34-1.9Q519.84 0.2 515.59 0.2ZM516.49-2.1L516.49-2.1Q520.29-2.1 524.34-3.8L524.34-3.8 524.34-10.95Q516.84-10.7 514.64-9.95L514.64-9.95Q512.94-9.5 512.24-8.33 511.54-7.15 511.54-6.45 511.54-5.75 511.54-5.5L511.54-5.5Q511.69-3.7 513.09-2.9 514.49-2.1 516.49-2.1ZM536.79-22.5L533.44-22.5 533.44-25 540.04-25 540.04-22.2Q544.14-25 547.89-25.15L547.89-25.15Q551.54-25.15 553.44-23.7L553.44-23.7Q554.29-23.05 554.96-21.68 555.64-20.3 555.64-18.4L555.64-18.4 555.64-2.5 559.49-2.5 559.49 0 549.39 0 549.39-2.5 552.39-2.5 552.39-17.15Q552.39-22 546.69-22L546.69-22Q543.59-21.9 540.04-19.95L540.04-19.95 540.04-2.5 543.79-2.5 543.79 0 533.69 0 533.69-2.5 536.79-2.5 536.79-22.5ZM571.83-2.45L571.83-2.45 573.78-2.55 573.93-0.55Q573.88-0.55 573.23-0.4L573.23-0.4Q571.73-0.05 569.88-0.05L569.88-0.05Q568.18-0.15 566.78-0.63 565.38-1.1 564.18-2.63 562.98-4.15 562.98-6.55L562.98-6.55 562.98-22.1 560.43-22.1 560.83-24.5 563.03-24.95 563.43-29.75 566.23-30 566.23-25 572.28-25 572.28-22.1 566.23-22.1 566.23-7.4Q566.23-2.45 571.83-2.45ZM596.38-32.25L593.18-32.25 593.18-35 600.03-35 619.93-4.5 619.73-32.25 616.48-32.25 616.48-35 626.03-35 626.03-32.25 622.88-32.25 622.88 0 619.23 0 599.28-30.5 599.48-2.75 603.28-2.75 603.28 0 593.18 0 593.18-2.75 596.38-2.75 596.38-32.25ZM640.25 0.2Q635.02 0.2 631.8-2.8 628.57-5.8 628.57-11.98 628.57-18.15 632-21.68 635.42-25.2 640.62-25.2 645.82-25.2 649.07-22.2 652.32-19.2 652.32-13.03 652.32-6.85 648.9-3.33 645.47 0.2 640.25 0.2ZM640.55-22.3Q636.82-22.3 634.32-19.6 631.82-16.9 631.82-12.28 631.82-7.65 634.2-5.18 636.57-2.7 640.32-2.7 644.07-2.7 646.57-5.38 649.07-8.05 649.07-12.68 649.07-17.3 646.67-19.8 644.27-22.3 640.55-22.3ZM666.27-2.45L666.27-2.45 668.22-2.55 668.37-0.55Q668.32-0.55 667.67-0.4L667.67-0.4Q666.17-0.05 664.32-0.05L664.32-0.05Q662.62-0.15 661.22-0.63 659.82-1.1 658.62-2.63 657.42-4.15 657.42-6.55L657.42-6.55 657.42-22.1 654.87-22.1 655.27-24.5 657.47-24.95 657.87-29.75 660.67-30 660.67-25 666.72-25 666.72-22.1 660.67-22.1 660.67-7.4Q660.67-2.45 666.27-2.45ZM673.57-11.2L673.57-11.2Q673.57-6.75 676.12-4.73 678.67-2.7 682.07-2.7L682.07-2.7Q684.27-2.7 686.59-3.13 688.92-3.55 689.67-3.9L689.67-3.9 690.32-1.55Q689.17-0.8 686.54-0.3 683.92 0.2 681.74 0.2 679.57 0.2 677.84-0.25 676.12-0.7 674.32-1.85 672.52-3 671.47-5.45 670.42-7.9 670.42-11.45L670.42-11.45Q670.42-18.05 673.82-21.55L673.82-21.55Q677.37-25.2 682.07-25.2 686.77-25.2 689.24-22.6 691.72-20 691.72-15.3L691.72-15.3Q691.72-14.3 691.57-13.15L691.57-13.15 673.72-13.15Q673.57-12.1 673.57-11.2ZM688.72-15.65L688.72-15.65Q688.72-18.75 686.87-20.43 685.02-22.1 682.57-22.1L682.57-22.1Q679.22-22.1 677.02-20.08 674.82-18.05 674.07-15.1L674.07-15.1 688.72-15.1Q688.72-15.4 688.72-15.65ZM697.87-8.05L698.12-3.25Q700.22-2.6 701.49-2.6 702.77-2.6 703.17-2.65L703.17-2.65Q705.77-2.7 707.52-3.75 709.27-4.8 709.27-6.7 709.27-8.6 707.89-9.65 706.52-10.7 704.57-11.25 702.62-11.8 700.67-12.45 698.72-13.1 697.34-14.5 695.97-15.9 695.97-18.15L695.97-18.15Q695.97-21.35 698.42-23.28 700.87-25.2 704.62-25.2L704.62-25.2Q707.42-25.2 710.27-24.2L710.27-24.2 711.17-23.85 711.17-18.1 708.72-17.75 708.52-22Q706.52-22.3 705.17-22.3L705.17-22.3Q702.42-22.3 700.82-21.23 699.22-20.15 699.22-18.48 699.22-16.8 700.59-15.85 701.97-14.9 703.92-14.35 705.87-13.8 707.82-13.13 709.77-12.45 711.14-10.93 712.52-9.4 712.52-6.95L712.52-6.95Q712.52-3.65 710.04-1.73 707.57 0.2 703.02 0.2 698.47 0.2 695.47-1.95L695.47-1.95 695.47-7.7 697.87-8.05ZM716.21-1.45L716.21-1.45Q716.21-2.4 716.69-2.95 717.16-3.5 717.96-3.5L717.96-3.5Q719.71-3.5 719.71-1.45L719.71-1.45Q719.71-0.6 719.21-0.1 718.71 0.4 717.96 0.4L717.96 0.4Q716.21 0.4 716.21-1.45Z" opacity="1" transform="matrix(1,0,0,1,0,0)" fill="#ed2326" class="slogan-text-1" data-fill-palette-color="secondary" id="text-1"></path></svg></g></svg></g></svg></g></svg></g><g><svg viewBox="0 0 244.43135999999998 244.43135999999998" height="244.43135999999998" width="244.43135999999998"><g><svg viewBox="0 0 244.43135999999998 244.43135999999998" height="244.43135999999998" width="244.43135999999998"><g transform="matrix(1,0,0,1,92.05817565066093,64.60265593644992)"><svg viewBox="0 0 60.31500869867812 115.22604812710014" height="115.22604812710014" width="60.31500869867812"><g><svg xmlns="http://www.w3.org/2000/svg" xmlns:xlink="http://www.w3.org/1999/xlink" version="1.1" x="0" y="0" viewBox="19.682355880737305 3.5 35.572967529296875 67.95874786376953" enable-background="new 0 0 75 75" xml:space="preserve" height="115.22604812710014" width="60.31500869867812" class="icon-s-0" data-fill-palette-color="accent" id="s-0"><path d="M21.2 59.5c-1.1-2.6-4.2-12.2 3.8-24.7C36 18 31.7 3.5 31.7 3.5S46 8.8 41.7 37.5c-1 6.5-0.9 9 2 9.4 5 0.7 3.1-19.7 3.1-19.7s3.9 2 6.8 12.1c1.5 5.3 1.8 9.5 1.6 12.5-1 18.1-16.5 19.6-16.5 19.6S26.9 73 21.2 59.5z" fill="#ed2326" data-fill-palette-color="accent"></path></svg></g></svg></g><g><path d="M28.811 91.101v0c-0.36 1.012-0.795 1.998-1.305 2.957-0.51 0.959-1.04 1.826-1.59 2.601-0.544 0.778-1.053 1.406-1.526 1.886v0l-3.361-1.713c0.522-0.518 1.105-1.166 1.747-1.944 0.649-0.776 1.267-1.643 1.855-2.603 0.588-0.959 1.07-1.97 1.448-3.032v0c0.558-1.568 0.715-2.92 0.472-4.056-0.246-1.129-0.981-1.912-2.206-2.347v0c-0.918-0.327-1.758-0.361-2.518-0.104-0.752 0.253-1.505 0.777-2.259 1.572-0.752 0.788-1.587 1.811-2.507 3.068v0c-0.878 1.201-1.786 2.272-2.726 3.211-0.946 0.938-1.996 1.585-3.15 1.942-1.161 0.354-2.497 0.263-4.009-0.276v0c-1.293-0.46-2.321-1.202-3.083-2.226-0.753-1.028-1.18-2.292-1.281-3.792-0.094-1.497 0.195-3.19 0.866-5.076v0c0.571-1.606 1.271-3.018 2.099-4.238 0.83-1.225 1.61-2.201 2.34-2.926v0l3.397 1.61c-1.258 1.045-2.271 2.11-3.037 3.195-0.773 1.084-1.389 2.272-1.849 3.566v0c-0.511 1.437-0.665 2.72-0.461 3.848 0.204 1.128 0.912 1.908 2.124 2.34v0c0.819 0.291 1.562 0.32 2.229 0.085 0.668-0.234 1.33-0.702 1.988-1.404 0.662-0.694 1.401-1.592 2.216-2.697v0c1.117-1.517 2.221-2.772 3.313-3.762 1.098-0.989 2.24-1.639 3.427-1.949 1.196-0.314 2.506-0.217 3.931 0.29v0c1.05 0.373 1.922 0.909 2.617 1.606 0.697 0.691 1.202 1.54 1.513 2.545 0.318 1.007 0.42 2.163 0.308 3.467-0.112 1.305-0.453 2.757-1.022 4.356z" fill="#ed2326" data-fill-palette-color="accent"></path><path d="M47.163 60.352v0c-1.55 1.876-3.193 3.13-4.928 3.761-1.725 0.63-3.504 0.696-5.337 0.197-1.823-0.5-3.65-1.506-5.48-3.019v0l-11.526-9.523 2.243-2.715 10.782 8.909c0.915 0.756 1.861 1.417 2.838 1.984 0.977 0.567 1.962 0.937 2.953 1.111 1.001 0.173 2.007 0.054 3.019-0.358 1.007-0.407 1.998-1.201 2.974-2.381v0c0.984-1.191 1.581-2.32 1.791-3.385 0.21-1.066 0.13-2.073-0.238-3.023-0.359-0.95-0.909-1.852-1.65-2.705-0.741-0.853-1.563-1.653-2.468-2.401v0l-10.782-8.909 2.243-2.714 11.526 9.523c1.83 1.512 3.163 3.117 3.998 4.813 0.836 1.706 1.105 3.468 0.807 5.287-0.289 1.817-1.21 3.667-2.765 5.548z" fill="#ed2326" data-fill-palette-color="accent"></path><path d="M69.221 40.98l-3.298 1.701-8.801-24.685 2.67-1.377 11.965 8.313 0.103-14.537 2.706-1.395 14.972 21.503-3.298 1.7-12.054-17.623 0.891-0.292-0.102 16.797-13.877-9.588 0.754-0.557z" fill="#ed2326" data-fill-palette-color="accent"></path><path d="M107.448 27.13l-3.703 0.231 1.869-26.141 2.999-0.186 7.611 12.423 5.941-13.268 3.038-0.189 5.061 25.709-3.704 0.23-3.948-20.983 0.932 0.091-6.848 15.337-8.849-14.359 0.914-0.207z" fill="#ed2326" data-fill-palette-color="accent"></path><path d="M162.421 23.871l-1.04 3.019-10.524-3.628 1.041-3.019zM160.891 34.139l-0.202-23.892 0.978 0.337-14.882 18.692-3.508-1.209 17.267-21.521 3.508 1.21 0.347 27.593z" fill="#ed2326" data-fill-palette-color="accent"></path><path d="M180.783 45.23l-2.931-1.971 14.491-21.555 2.93 1.97z" fill="#ed2326" data-fill-palette-color="accent"></path><path d="M204.642 70.625l-12.324-15.224 28.107-3.619-0.618 1.371-8.737-10.794 2.482-2.009 11.397 14.08-28.155 3.543 0.641-1.326 9.689 11.969z" fill="#ed2326" data-fill-palette-color="accent"></path><path d="M217.743 99.266l-5.906-15.069 24.183-9.476 5.782 14.754-2.973 1.165-4.493-11.466-7.076 2.773 3.575 9.123-2.973 1.165-3.575-9.123-8.188 3.208 4.617 11.781z" fill="#ed2326" data-fill-palette-color="accent"></path><path d="M10.619 167.455v0c-0.368-1.03-0.663-2.091-0.884-3.18-0.212-1.086-0.354-2.113-0.426-3.081-0.071-0.968-0.073-1.791-0.006-2.47v0l3.761-0.827c-0.076 0.753-0.12 1.645-0.131 2.677-0.007 1.024 0.067 2.107 0.222 3.249 0.153 1.136 0.422 2.244 0.808 3.324v0c0.574 1.605 1.323 2.774 2.247 3.507 0.924 0.733 2.011 0.876 3.26 0.429v0c0.937-0.335 1.62-0.847 2.05-1.536 0.43-0.689 0.689-1.588 0.778-2.697 0.083-1.107 0.083-2.456 0-4.047v0c-0.089-1.51-0.063-2.943 0.08-4.296 0.139-1.346 0.552-2.532 1.241-3.561 0.68-1.032 1.792-1.824 3.334-2.375v0c1.318-0.471 2.608-0.545 3.872-0.223 1.261 0.317 2.413 1.035 3.454 2.156 1.042 1.121 1.906 2.643 2.595 4.566v0c0.587 1.642 0.949 3.214 1.084 4.715 0.133 1.495 0.147 2.765 0.041 3.81v0l-3.733 0.933c0.327-1.645 0.443-3.145 0.346-4.497-0.096-1.353-0.38-2.688-0.852-4.006v0c-0.523-1.461-1.226-2.572-2.111-3.334-0.891-0.759-1.955-0.917-3.191-0.475v0c-0.831 0.297-1.435 0.753-1.814 1.367-0.37 0.618-0.592 1.416-0.666 2.394-0.073 0.977-0.075 2.164-0.004 3.561v0c0.094 1.917 0.03 3.62-0.192 5.108-0.228 1.49-0.71 2.74-1.448 3.751-0.741 1.019-1.837 1.787-3.285 2.305v0c-1.074 0.384-2.111 0.526-3.112 0.426-1.001-0.1-1.948-0.444-2.842-1.033-0.894-0.589-1.718-1.435-2.471-2.539-0.754-1.104-1.422-2.471-2.005-4.1z" fill="#ed2326" data-fill-palette-color="accent"></path><path d="M32.345 203.99v0c-1.586-1.915-2.53-3.799-2.833-5.65-0.297-1.855-0.022-3.65 0.824-5.384 0.851-1.738 2.209-3.379 4.073-4.923v0l11.744-9.727 2.291 2.765-10.986 9.1c-0.935 0.774-1.777 1.597-2.528 2.468-0.755 0.866-1.314 1.782-1.678 2.746-0.364 0.964-0.437 1.994-0.22 3.088 0.213 1.089 0.819 2.236 1.818 3.442v0c1.007 1.216 2.023 2.027 3.049 2.434 1.03 0.412 2.056 0.528 3.077 0.346 1.02-0.182 2.026-0.563 3.018-1.144 0.996-0.575 1.956-1.246 2.88-2.011v0l10.987-9.1 2.29 2.766-11.744 9.728c-1.864 1.544-3.727 2.575-5.59 3.092-1.861 0.508-3.678 0.441-5.449-0.201-1.763-0.641-3.437-1.92-5.023-3.835z" fill="#ed2326" data-fill-palette-color="accent"></path><path d="M60.858 227.193l-3.363-1.727 15.261-21.943 2.726 1.4 0.195 14.862 12.131-8.532 2.761 1.418-8.978 25.169-3.362-1.727 7.481-20.447 0.772 0.565-14 9.864-0.273-17.194 0.909 0.299z" fill="#ed2326" data-fill-palette-color="accent"></path><path d="M106.446 243.039l-3.774-0.226 5.128-26.231 3.058 0.183 6.167 13.523 7.666-12.695 3.098 0.185 1.923 26.653-3.774-0.225-1.39-21.729 0.934 0.206-8.84 14.668-7.177-15.627 0.952-0.092z" fill="#ed2326" data-fill-palette-color="accent"></path><path d="M162.076 225.673l1.069 3.072-10.72 3.73-1.069-3.073zM167.318 234.866l-15.233-19.02 1.005-0.35-0.138 24.368-3.57 1.242 0.268-28.141 3.57-1.242 17.677 21.898z" fill="#ed2326" data-fill-palette-color="accent"></path><path d="M191.159 221.763l-2.987 2.011-14.792-21.977 2.987-2.01z" fill="#ed2326" data-fill-palette-color="accent"></path><path d="M218.964 192.701l-12.589 15.521-9.544-27.286 1.484 0.333-8.917 10.994-2.526-2.049 11.637-14.347 9.499 27.34-1.465-0.356 9.894-12.199z" fill="#ed2326" data-fill-palette-color="accent"></path><path d="M234.832 159.338l-6.057 15.351-24.642-9.723 5.933-15.037 3.026 1.194-4.612 11.687 7.218 2.848 3.666-9.291 3.026 1.194-3.666 9.291 8.347 3.293 4.735-12.001z" fill="#ed2326" data-fill-palette-color="accent"></path><path d="M2.629 125.923c0-5.589 4.531-10.119 10.12-10.12 5.589 0 10.119 4.531 10.119 10.12 0 5.589-4.531 10.119-10.119 10.119-5.589 0-10.119-4.531-10.12-10.119z" fill="#ed2326" data-fill-palette-color="accent"></path><path d="M219.814 125.923c0-5.589 4.531-10.119 10.119-10.12 5.589 0 10.119 4.531 10.12 10.12 0 5.589-4.531 10.119-10.12 10.119-5.589 0-10.119-4.531-10.119-10.119z" fill="#ed2326" data-fill-palette-color="accent"></path></g></svg></g></svg></g></svg></g><defs></defs></svg><rect width="395.52" height="143.16462878897315" fill="none" stroke="none" visibility="hidden"></rect></g></svg></g></svg>